<svg width="177" height="43" viewBox="0 0 177 43" fill="none" xmlns="http://www.w3.org/2000/svg">
<path d="M48.1162 24.8572L46.6905 23.3615C46.5895 23.2561 46.4313 23.2356 46.3043 23.3101C44.4121 24.4357 42.3202 24.9985 40.0262 24.9985C36.6279 24.9985 33.7376 23.8318 31.3606 21.4932C28.9811 19.1572 27.7913 16.3046 27.7913 12.9355C27.7913 9.56635 28.9811 6.71378 31.3606 4.37775C33.7376 2.0443 36.6279 0.875 40.0262 0.875C43.4244 0.875 46.3432 2.03659 48.7098 4.36233C51.0764 6.68808 52.2611 9.54579 52.2611 12.938C52.2611 16.0091 51.2709 18.6586 49.2905 20.8841C49.1842 21.0023 49.1842 21.1822 49.2905 21.2979L50.6125 22.7113C50.7317 22.8398 50.7213 23.0428 50.5865 23.1559L48.5413 24.8803C48.4143 24.9857 48.2277 24.9754 48.1136 24.8572H48.1162ZM40.0262 21.7682C41.4881 21.7682 42.8205 21.4521 44.0206 20.8225C44.2021 20.7274 44.2488 20.4858 44.1062 20.3367L42.6935 18.8359C42.5742 18.7074 42.5846 18.507 42.7168 18.3939L44.7594 16.6412C44.8864 16.5333 45.0782 16.5436 45.1923 16.6669L46.6491 18.2423C46.7761 18.3811 47.0016 18.3759 47.1182 18.2294C48.3262 16.7183 48.9302 14.9554 48.9302 12.9432C48.9302 10.471 48.0747 8.38421 46.3639 6.67523C44.6531 4.96883 42.5405 4.11306 40.0262 4.11306C37.5118 4.11306 35.4251 4.96626 33.7039 6.67523C31.9827 8.38164 31.1222 10.471 31.1222 12.9432C31.1222 15.4154 31.9827 17.5022 33.7039 19.2111C35.4251 20.9175 37.5325 21.7707 40.0262 21.7707V21.7682Z" fill="black"/>
<path d="M68.4381 16.7463C68.4381 19.4884 67.7589 21.5469 66.3981 22.9295C65.0398 24.3121 63.2253 25.0008 60.9598 25.0008C58.6942 25.0008 56.8823 24.3095 55.5215 22.9295C54.1632 21.5469 53.4814 19.4884 53.4814 16.7463V8.1912C53.4814 8.02159 53.6214 7.88281 53.7925 7.88281H56.5013C56.6724 7.88281 56.8123 8.02159 56.8123 8.1912V16.7463C56.8123 20.1155 58.194 21.8013 60.9598 21.8013C63.7256 21.8013 65.1072 20.1155 65.1072 16.7463V8.1912C65.1072 8.02159 65.2472 7.88281 65.4182 7.88281H68.127C68.2981 7.88281 68.4381 8.02159 68.4381 8.1912V16.7463Z" fill="black"/>
<path d="M72.2097 5.55988C71.6213 5.55988 71.134 5.36457 70.7477 4.97138C70.3615 4.57818 70.1697 4.10018 70.1697 3.53995C70.1697 2.97971 70.3615 2.50172 70.7477 2.10852C71.134 1.71533 71.6187 1.52002 72.2097 1.52002C72.8007 1.52002 73.2517 1.7179 73.638 2.10852C74.0242 2.50172 74.216 2.97971 74.216 3.53995C74.216 4.10018 74.0242 4.57818 73.638 4.97138C73.2517 5.36457 72.7774 5.55988 72.2097 5.55988ZM70.5455 24.4254V8.19144C70.5455 8.02183 70.6855 7.88306 70.8566 7.88306H73.5654C73.7365 7.88306 73.8764 8.02183 73.8764 8.19144V24.4228C73.8764 24.5924 73.7365 24.7312 73.5654 24.7312H70.8566C70.6855 24.7312 70.5455 24.5924 70.5455 24.4228V24.4254Z" fill="black"/>
<path d="M91.0754 19.0053C91.078 18.8331 90.938 18.6918 90.7643 18.6918H88.1592C88.0504 18.6918 87.9544 18.7381 87.8845 18.8152C87.8559 18.846 87.83 18.8845 87.8145 18.9257C87.125 20.6835 85.65 21.6934 83.7733 21.6934C82.3736 21.6934 81.1112 21.1512 80.2143 20.1643C79.32 19.1801 78.8275 17.8 78.8275 16.2735C78.8275 14.747 79.32 13.3413 80.2143 12.3545C81.1086 11.3676 82.3736 10.8228 83.7733 10.8228C85.6786 10.8228 87.1638 11.8431 87.8482 13.6188C87.9026 13.7628 88.04 13.8553 88.1929 13.8553H90.7928C90.9639 13.8553 91.1039 13.7165 91.1039 13.5469V13.4595C91.1039 13.4595 91.1039 13.439 91.1039 13.4287C91.0858 13.1922 91.0417 12.9481 90.9743 12.7014C90.9639 12.6551 90.938 12.578 90.938 12.578C90.5855 11.4165 89.8312 10.5196 89.8001 10.481L89.7949 10.4759C88.4081 8.69495 86.2696 7.71582 83.7759 7.71582C81.2823 7.71582 79.2293 8.62299 77.7025 10.2703C76.2432 11.8456 75.437 13.9761 75.437 16.2735C75.437 18.571 76.2328 20.668 77.6766 22.2357C79.2215 23.9112 81.3289 24.7978 83.7733 24.7978C84.8154 24.7978 85.7641 24.6437 86.6117 24.343C88.5766 23.5694 90.1318 22.2716 90.9406 19.8431C91.0106 19.5913 91.0521 19.342 91.0702 19.1004C91.0702 19.0773 91.0728 19.0439 91.0728 19.0028L91.0754 19.0053Z" fill="black"/>
<path d="M92.5193 24.423V1.45341C92.5193 1.28379 92.6593 1.14502 92.8303 1.14502H95.5391C95.7102 1.14502 95.8502 1.28379 95.8502 1.45341V13.555C95.8502 13.8274 96.182 13.9662 96.3764 13.776L102.385 7.97063C102.442 7.9141 102.52 7.88326 102.603 7.88326H105.972C106.25 7.88326 106.387 8.21477 106.193 8.41009L100.389 14.1332C100.28 14.2412 100.267 14.4108 100.358 14.5316L107.489 24.2406C107.639 24.4436 107.491 24.7289 107.237 24.7289H104.301C104.202 24.7289 104.109 24.6826 104.052 24.6055L98.1364 16.6903C98.025 16.5412 97.8047 16.5232 97.6699 16.6517L95.9461 18.3041C95.8865 18.3633 95.8502 18.4429 95.8502 18.5252V24.4205C95.8502 24.5901 95.7102 24.7289 95.5391 24.7289H92.8303C92.6593 24.7289 92.5193 24.5901 92.5193 24.4205V24.423Z" fill="black"/>
<path d="M119.607 19.3551H116.919C116.787 19.3551 116.668 19.4373 116.626 19.5607C116.281 20.604 115.548 21.3519 114.039 21.3519C112.531 21.3519 111.328 20.1414 111.328 18.6715V12.1902V11.0646C111.328 10.9798 111.398 10.9104 111.483 10.9104H118.531C118.703 10.9104 118.843 10.7716 118.843 10.602V8.13237C118.843 7.96276 118.703 7.82399 118.531 7.82399H111.483C111.398 7.82399 111.328 7.7546 111.328 7.66979V3.77128C111.328 3.60166 111.188 3.46289 111.017 3.46289H108.158C107.987 3.46289 107.847 3.60166 107.847 3.77128V7.90108V18.6252C107.847 21.9763 110.535 24.7878 113.915 24.8186C116.276 24.8392 118.371 23.544 119.41 21.5497C119.711 20.9715 119.877 20.3368 119.918 19.6891C119.929 19.5118 119.789 19.3576 119.607 19.3576V19.3551Z" fill="black"/>
<path d="M122.92 10.1575C124.631 8.46134 126.697 7.61328 129.123 7.61328C131.549 7.61328 133.615 8.46134 135.326 10.1575C137.037 11.8536 137.892 13.9044 137.892 16.3072C137.892 18.71 137.037 20.7608 135.326 22.4569C133.615 24.1531 131.547 25.0011 129.123 25.0011C126.699 25.0011 124.631 24.1531 122.92 22.4569C121.209 20.7608 120.354 18.7126 120.354 16.3072C120.354 13.9018 121.209 11.8536 122.92 10.1575ZM129.157 10.8154C127.594 10.8154 126.29 11.3422 125.248 12.3984C124.206 13.4546 123.685 14.7576 123.685 16.3072C123.685 17.8568 124.211 19.1315 125.266 20.198C126.321 21.2645 127.617 21.799 129.157 21.799C130.696 21.799 131.982 21.2722 133.014 20.216C134.045 19.1598 134.561 17.8568 134.561 16.3072C134.561 14.7576 134.045 13.4546 133.014 12.3984C131.982 11.3422 130.696 10.8154 129.157 10.8154Z" fill="black"/>
<path d="M141.51 10.1575C143.221 8.46134 145.287 7.61328 147.713 7.61328C150.14 7.61328 152.205 8.46134 153.916 10.1575C155.627 11.8536 156.483 13.9044 156.483 16.3072C156.483 18.71 155.627 20.7608 153.916 22.4569C152.205 24.1531 150.137 25.0011 147.713 25.0011C145.29 25.0011 143.221 24.1531 141.51 22.4569C139.8 20.7608 138.944 18.7126 138.944 16.3072C138.944 13.9018 139.8 11.8536 141.51 10.1575ZM147.747 10.8154C146.184 10.8154 144.88 11.3422 143.838 12.3984C142.796 13.4546 142.275 14.7576 142.275 16.3072C142.275 17.8568 142.801 19.1315 143.856 20.198C144.911 21.2645 146.207 21.799 147.747 21.799C149.287 21.799 150.572 21.2722 151.604 20.216C152.636 19.1598 153.152 17.8568 153.152 16.3072C153.152 14.7576 152.636 13.4546 151.604 12.3984C150.572 11.3422 149.287 10.8154 147.747 10.8154Z" fill="black"/>
<path d="M160.726 24.7314H158.018C157.847 24.7314 157.707 24.5927 157.707 24.423V1.45341C157.707 1.28379 157.847 1.14502 158.018 1.14502H160.726C160.897 1.14502 161.037 1.28379 161.037 1.45341V24.423C161.037 24.5927 160.897 24.7314 160.726 24.7314Z" fill="black"/>
<path d="M174.633 16.2246C173.614 15.505 172.165 15.0167 170.073 14.6904C167.478 14.2483 166.071 13.7781 166.071 12.5625C166.071 11.6116 166.96 10.5965 169.459 10.5965C170.693 10.5965 171.639 10.9846 172.271 11.753C172.569 12.1179 172.798 12.5651 172.945 13.0868C173.005 13.2923 173.194 13.4363 173.407 13.4363H175.838C176.014 13.4363 176.154 13.2898 176.149 13.115C176.147 13.0199 176.139 12.9274 176.131 12.876C175.737 10.6634 174.399 9.44779 174 9.12656C172.831 8.19369 171.304 7.71826 169.459 7.71826C167.613 7.71826 165.879 8.18598 164.666 9.07002C163.432 9.96948 162.781 11.2107 162.781 12.6602C162.781 16.1064 165.967 17.1009 169.412 17.6663C172.673 18.1469 173.114 19.0283 173.114 19.8276C173.114 21.1202 171.714 21.922 169.461 21.922C169.07 21.922 168.697 21.8886 168.352 21.8269C168.344 21.8218 168.334 21.8192 168.323 21.8167C166.805 21.5134 165.801 20.5625 165.249 18.9075C165.208 18.7816 165.089 18.6917 164.954 18.6917H162.305C162.123 18.6917 161.981 18.8459 161.993 19.0258C162.022 19.4164 162.102 19.8044 162.242 20.1719C162.411 20.6191 162.584 20.93 162.595 20.9506C163.619 23.1479 165.589 24.4585 168.292 24.7438C168.298 24.7438 168.3 24.7438 168.305 24.7438C168.684 24.7823 169.073 24.8029 169.461 24.8029C171.416 24.8029 173.181 24.3069 174.438 23.4048C175.708 22.4925 176.406 21.1999 176.406 19.7659C176.406 18.2291 175.828 17.0726 174.635 16.2297L174.633 16.2246Z" fill="black"/>
<path d="M117.935 36.7115C117.935 37.5776 117.624 38.3048 117.015 38.8933C116.406 39.4818 115.657 39.7748 114.767 39.7748H110.055V28.9453H114.423C115.281 28.9453 115.999 29.2229 116.592 29.7959C117.186 30.369 117.481 31.0655 117.481 31.9007C117.481 32.8592 117.093 33.6174 116.294 34.1596C117.292 34.6402 117.932 35.5525 117.932 36.7115H117.935ZM111.507 30.2919V33.6019H114.425C115.345 33.6019 116.048 32.8747 116.048 31.9469C116.048 31.4972 115.892 31.1117 115.563 30.7879C115.252 30.4641 114.876 30.2919 114.425 30.2919H111.507ZM114.767 38.4282C115.75 38.4282 116.499 37.6547 116.499 36.6652C116.499 36.1847 116.328 35.7684 115.983 35.4266C115.657 35.0873 115.25 34.9152 114.767 34.9152H111.507V38.4256H114.767V38.4282Z" fill="black"/>
<path d="M124.426 32.0397H125.877L122.694 40.253C122.023 42.0006 120.792 42.9745 119.231 42.8666V41.6125C120.182 41.6896 120.885 41.1628 121.339 40.0346L121.479 39.7416L118.078 32.0371H119.529L122.181 38.102L124.428 32.0371L124.426 32.0397Z" fill="black"/>
<path d="M134.429 28.9454C135.442 28.9454 136.269 29.2847 136.94 29.9503C137.612 30.6159 137.954 31.4357 137.954 32.4251C137.954 33.4145 137.609 34.2343 136.94 34.8999C136.269 35.5655 135.442 35.9047 134.429 35.9047H131.917V39.7724H130.465V28.9429H134.429V28.9454ZM134.429 34.5606C135.038 34.5606 135.536 34.3602 135.927 33.9567C136.316 33.5404 136.521 33.029 136.521 32.4251C136.521 31.1864 135.631 30.2895 134.429 30.2895H131.917V34.5581H134.429V34.5606Z" fill="black"/>
<path d="M139.001 29.7346C139.001 29.2386 139.406 28.8223 139.922 28.8223C140.438 28.8223 140.826 29.2386 140.826 29.7346C140.826 30.2306 140.419 30.6315 139.922 30.6315C139.424 30.6315 139.001 30.228 139.001 29.7346ZM139.235 39.7751V32.0398H140.593V39.7751H139.235Z" fill="black"/>
<path d="M143.105 38.8166C142.324 38.0276 141.936 37.0691 141.936 35.9075C141.936 34.7459 142.324 33.7873 143.105 33.0138C143.885 32.2248 144.867 31.8394 146.039 31.8394C147.584 31.8394 148.88 32.6283 149.486 33.867L148.348 34.5172C147.96 33.6974 147.084 33.1551 146.039 33.1551C145.259 33.1551 144.603 33.4173 144.074 33.9441C143.558 34.4709 143.294 35.1185 143.294 35.9101C143.294 36.7016 143.558 37.3338 144.074 37.858C144.605 38.3849 145.261 38.647 146.039 38.647C147.084 38.647 147.957 38.1202 148.395 37.3004L149.549 37.966C148.877 39.1892 147.55 39.9782 146.039 39.9782C144.87 39.9782 143.885 39.5927 143.105 38.8192V38.8166Z" fill="black"/>
<path d="M153.248 35.288C154.466 35.5501 156.089 35.9999 156.073 37.6549C156.073 38.3513 155.793 38.9244 155.246 39.3407C154.699 39.7596 154.012 39.9755 153.154 39.9755C151.641 39.9755 150.503 39.2636 150.049 38.1663L151.218 37.5007C151.467 38.2434 152.201 38.7085 153.152 38.7085C154.041 38.7085 154.697 38.3847 154.697 37.6574C154.697 37.0535 154.01 36.7143 153.152 36.5138C151.918 36.19 150.326 35.7866 150.326 34.147C150.326 33.4814 150.591 32.9237 151.107 32.492C151.638 32.0577 152.294 31.8418 153.087 31.8418C154.352 31.8418 155.397 32.4457 155.897 33.4505L154.759 34.0853C154.479 33.4197 153.917 33.0959 153.09 33.0959C152.325 33.0959 151.7 33.466 151.7 34.1316C151.7 34.7355 152.387 35.0593 153.245 35.2906L153.248 35.288Z" fill="black"/>
<path d="M163.627 32.0399H164.985V39.7753H163.627V38.4441C162.955 39.4643 161.973 39.9757 160.677 39.9757C159.586 39.9757 158.647 39.5903 157.885 38.7987C157.12 38.0098 156.729 37.0358 156.729 35.905C156.729 34.7743 157.118 33.8157 157.885 33.0268C158.65 32.2378 159.586 31.8369 160.677 31.8369C161.973 31.8369 162.955 32.3483 163.627 33.3686V32.0374V32.0399ZM162.831 37.8864C163.362 37.3442 163.627 36.694 163.627 35.905C163.627 35.1161 163.362 34.4659 162.831 33.9391C162.3 33.3968 161.644 33.1347 160.848 33.1347C160.052 33.1347 159.412 33.3968 158.883 33.9391C158.352 34.4659 158.087 35.1135 158.087 35.905C158.087 36.6966 158.352 37.3442 158.883 37.8864C159.414 38.4132 160.068 38.6754 160.848 38.6754C161.628 38.6754 162.3 38.4132 162.831 37.8864Z" fill="black"/>
<path d="M168.106 33.34C168.56 32.3814 169.371 31.9009 170.54 31.9009V33.3092C169.869 33.2783 169.306 33.4479 168.824 33.836C168.339 34.2215 168.106 34.8254 168.106 35.676V39.775H166.748V32.0397H168.106V33.34Z" fill="black"/>
<path d="M176.002 33.3402H173.925V37.5317C173.925 38.7241 174.612 38.629 176.002 38.5673V39.7752C173.63 40.0836 172.57 39.4514 172.57 37.5317V33.3402H171.025V32.0398H172.57V30.2769L173.928 29.876V32.0424H176.004V33.3428L176.002 33.3402Z" fill="black"/>
<path d="M24.4549 12.7042C24.4549 19.2368 19.1151 24.5308 12.5259 24.5308C5.93664 24.5308 0.594238 19.2368 0.594238 12.7042C0.594238 6.17153 5.93664 0.875 12.5259 0.875C19.1151 0.875 24.4549 6.16896 24.4549 12.7016V12.7042Z" fill="url(#paint0_linear_1831_11473)"/>
<path d="M18.4209 11.3084H6.3052C6.13412 11.3084 5.99414 11.1696 5.99414 11V8.92871C5.99414 8.75909 6.13412 8.62032 6.3052 8.62032H11.1473C11.2354 8.62032 11.308 8.54836 11.308 8.46099V4.78348C11.308 4.51621 11.6294 4.37487 11.829 4.55733L18.6334 10.7713C18.8408 10.9615 18.706 11.3058 18.4234 11.3058L18.4209 11.3084Z" fill="white"/>
<path d="M6.79061 13.9761H18.9063C19.0774 13.9761 19.2173 14.1148 19.2173 14.2845V16.3558C19.2173 16.5254 19.0774 16.6642 18.9063 16.6642H14.0642C13.976 16.6642 13.9034 16.7361 13.9034 16.8235V20.501C13.9034 20.7683 13.582 20.9096 13.3824 20.7272L6.57806 14.5132C6.37069 14.323 6.50548 13.9786 6.78802 13.9786L6.79061 13.9761Z" fill="white"/>
<defs>
<linearGradient id="paint0_linear_1831_11473" x1="17.6951" y1="0.874999" x2="5.39449" y2="23.0762" gradientUnits="userSpaceOnUse">
<stop offset="0.281171" stop-color="#42449C"/>
<stop offset="1" stop-color="#FABBFF"/>
</linearGradient>
</defs>
</svg>
